
        <svg xmlns="http://www.w3.org/2000/svg" xmlns:xlink="http://www.w3.org/1999/xlink" version="1.1" width="3228.018683458837" height="1654.6835232954497" viewBox="0 0 3228.018683458837 1654.6835232954497">

			<g transform="scale(11.400934172941849) translate(10, 10)">
				<defs id="SvgjsDefs7117"/><g id="SvgjsG7118" featureKey="symbolFeature-0" transform="matrix(3.910493260342198,0,0,3.910493260342198,-19.525092968227376,-1.955246630171099)" fill="#fff"><path xmlns="http://www.w3.org/2000/svg" d="M22.449,13.738c-0.139-0.49-0.717-0.607-0.783-0.621l-0.102,0.555c0.08,0.016,0.305,0.092,0.34,0.219  c0.109,0.385-0.004,1.779-0.25,1.859l-0.225-0.033l-0.078,0.215c-0.566,1.551-2.471,5.57-4.482,5.57c-0.004,0-0.004,0-0.007,0  c-0.164,0.01-0.273,0.012-0.37,0.014c-0.098-0.002-0.206-0.004-0.368-0.014c-0.004,0-0.007,0-0.007,0  c-1.995,0-3.899-4.02-4.464-5.57l-0.088-0.215l-0.227,0.035c-0.233-0.082-0.35-1.477-0.24-1.861c0.033-0.119,0.247-0.201,0.34-0.219  l-0.054-0.277l-0.049-0.277c-0.066,0.014-0.643,0.131-0.782,0.621c-0.088,0.311-0.136,1.818,0.334,2.359  c0.083,0.096,0.186,0.162,0.298,0.193c0.374,0.973,2.326,5.674,4.837,5.766v0.012c0.16,0.008,0.268,0.014,0.398,0.014  c0.024,0,0.056,0,0.088,0c0.021,0,0.048,0,0.065,0c0.141,0,0.262-0.008,0.443-0.018v-0.014c2.498-0.158,4.428-4.795,4.801-5.76  c0.111-0.031,0.215-0.098,0.297-0.193C22.586,15.557,22.533,14.049,22.449,13.738z"/><path xmlns="http://www.w3.org/2000/svg" d="M12.433,21.551l2.619,2.15l1.07,2.357l-8.317-3.053C7.805,23.006,10.136,21.346,12.433,21.551z"/><path xmlns="http://www.w3.org/2000/svg" d="M20.57,21.551l-2.619,2.15l-1.071,2.357l8.319-3.053C25.199,23.006,22.867,21.346,20.57,21.551z"/><path xmlns="http://www.w3.org/2000/svg" d="M25.869,23.443l-9.367,3.791l-9.368-3.791c0,0-1.853,1.127-1.678,1.543C7.302,29.379,16.502,32.5,16.502,32.5  s9.199-3.121,11.044-7.514C27.721,24.57,25.869,23.443,25.869,23.443z"/><path xmlns="http://www.w3.org/2000/svg" d="M10.364,13.018c1.274-0.283,2.327-0.693,3.185-1.129c-0.523-0.1-1.074-0.236-1.617-0.424  c-0.801-0.275-1.574-0.666-2.222-1.203c-0.099,0.596-0.188,1.207-0.275,1.826c-0.724,5.08-2.841,10.578-2.841,10.578  c1.66-1.26,5.183-2.703,5.183-2.703s-1.289-2.908-1.826-4.262C9.525,14.633,9.783,13.164,10.364,13.018z"/><path xmlns="http://www.w3.org/2000/svg" d="M21.227,19.963c0,0,3.523,1.443,5.184,2.703c0,0-2.119-5.498-2.842-10.578c-0.088-0.617-0.176-1.223-0.273-1.816  c-0.646,0.533-1.422,0.924-2.219,1.197c-0.543,0.186-1.094,0.322-1.617,0.422c0.855,0.436,1.908,0.844,3.18,1.127  c0.58,0.146,0.838,1.615,0.414,2.684C22.518,17.055,21.227,19.963,21.227,19.963z"/><path xmlns="http://www.w3.org/2000/svg" d="M16.498,9.771L9.75,7.07v2.668v0.109h0.017c0.658,0.611,1.49,1.033,2.346,1.328c2.103,0.723,4.333,0.664,4.394,0.662  c0.06,0.002,2.283,0.061,4.384-0.658c0.855-0.293,1.695-0.719,2.354-1.332V9.738V7.07L16.498,9.771z"/><polygon xmlns="http://www.w3.org/2000/svg" points="16.499,0.5 4.993,4.852 9.932,6.826 16.498,9.453 23.061,6.826 25.207,5.967 26.262,5.547 28.006,4.852 "/><polygon xmlns="http://www.w3.org/2000/svg" points="25.896,5.947 25.896,9.326 25.896,9.391 26.951,9.391 26.951,9.326 26.951,5.555 "/><polygon xmlns="http://www.w3.org/2000/svg" points="27.213,10.156 26.996,9.643 25.854,9.643 25.629,10.156 24.84,12.014 26.424,13.67 28.008,12.014 "/></g><g id="SvgjsG7119" featureKey="sloganFeature-0" transform="matrix(1.2798418598179397,0,0,1.2798418598179397,109.53810501591397,79.36894339905646)" fill="#fff"><path d="M2.3529 8.102 l-1.992 0 l0 -2.1257 l5.8289 0 l0 2.1257 l-2.5401 0 l0.54813 0.40107 l0 11.484 l-1.8449 0 l0 -11.885 z M10.190545454545454 5.976000000000001 l0 5.9358 l2.1524 0 l0 -5.9358 l1.8316 0 l0 13.997 l-1.8316 0 l0 -5.9492 l-2.7005 0 l0.54813 0.41444 l0 5.5348 l-1.8449 0 l0 -13.596 l-0.33422 -0.40107 l2.1791 0 z M16.637698609625666 6.43 l-0.33422 -0.41444 l5.254 0 l0 2.1123 l-3.623 0 l0.54813 0.41444 l0 3.4091 l2.1658 0 l0 2.1257 l-2.7139 0 l0.54813 0.40107 l0 3.4225 l3.0749 0 l0 2.1123 l-4.9198 0 l0 -2.1123 l0 -3.8235 l0 -2.1257 l0 -5.5214 z M29.866341176470588 17.9011 l2.1658 0 l0 -9.7727 l-2.7005 0 l0.53476 0.41444 l0 9.3583 z M33.86364117647059 7.34 l0 11.35 c0 0.74866 -0.57487 1.3235 -1.3235 1.3235 l-3.1818 0 c-0.74866 0 -1.3235 -0.57487 -1.3235 -1.3235 l0 -11.35 c0 -0.70856 0.57487 -1.3235 1.3235 -1.3235 l3.1818 0 c0.74866 0 1.3235 0.61497 1.3235 1.3235 z M37.904452941176466 11.9251 l2.1524 0 l0 -3.8369 l-2.7005 0 l0.54813 0.41444 l0 3.4225 z M41.888352941176464 7.313000000000001 l0 5.4011 c0 0.70856 -0.57487 1.3235 -1.3235 1.3235 l-3.2086 0 l0.54813 0.41444 l0 5.5348 l-1.8449 0 l0 -13.596 l-0.33422 -0.41444 l4.8396 0 c0.74866 0 1.3235 0.58824 1.3235 1.3369 z M43.736629090909084 6.43 l-0.33422 -0.41444 l5.254 0 l0 2.1123 l-3.623 0 l0.54813 0.41444 l0 3.4091 l2.1658 0 l0 2.1257 l-2.7139 0 l0.54813 0.40107 l0 3.4225 l3.0749 0 l0 2.1123 l-4.9198 0 l0 -2.1123 l0 -3.8235 l0 -2.1257 l0 -5.5214 z M50.47794197860962 6.003 l2.6203 0 l1.7112 7.6337 l0 -7.6203 l1.8316 0 l0 13.984 l-2.2861 0 l-1.6979 -7.5936 l0 7.607 l-1.8449 0 l0 -13.596 z M63.31884786096256 6.016 l2.1791 0 l0 11.885 l3.0749 0 l0 2.1123 l-4.9198 0 l0 -0.013369 l0 -2.0989 l0 -11.484 z M70.2740622459893 6.43 l-0.33422 -0.41444 l5.254 0 l0 2.1123 l-3.623 0 l0.54813 0.41444 l0 3.4091 l2.1658 0 l0 2.1257 l-2.7139 0 l0.54813 0.40107 l0 3.4225 l3.0749 0 l0 2.1123 l-4.9198 0 l0 -2.1123 l0 -3.8235 l0 -2.1257 l0 -5.5214 z M79.27477005347595 15.8021 l1.885 0 l-0.93583 -7.6738 z M76.90842005347594 20.026738 l1.6711 -13.596 l-0.33422 -0.40107 l3.5695 0 l1.7246 13.997 l-1.8583 0 l-0.25401 -2.1123 l-2.9545 -0.013369 l0.49465 0.3877 l-0.2139 1.738 l-1.8449 0 z M87.41983048128341 11.9118 l2.1524 0 l0 -3.8369 l-2.7005 0 l0.54813 0.41444 l0 3.4225 z M91.40373048128342 7.2989999999999995 l0 5.4011 c0 0.74866 -0.57487 1.3235 -1.3235 1.3235 l-0.25401 0 l1.5775 5.9492 l-1.8984 0 l-1.5775 -5.9492 l-1.0561 0 l0.54813 0.41444 l0 5.5348 l-1.8449 0 l0 -11.898 l0 -1.6979 l-0.33422 -0.41444 l4.8396 0.013369 c0.74866 0 1.3235 0.57487 1.3235 1.3235 z M93.21189919786096 6.003 l2.6203 0 l1.7112 7.6337 l0 -7.6203 l1.8316 0 l0 13.984 l-2.2861 0 l-1.6979 -7.5936 l0 7.607 l-1.8449 0 l0 -13.596 z M103.6965614973262 19.973262 l-1.8449 0 l0 -13.583 l-0.33422 -0.41444 l2.1791 0 l0 13.997 z M105.83890454545454 6.003 l2.6203 0 l1.7112 7.6337 l0 -7.6203 l1.8316 0 l0 13.984 l-2.2861 0 l-1.6979 -7.5936 l0 7.607 l-1.8449 0 l0 -13.596 z M120.01341176470586 7.34 l0 3.5829 l-1.8316 0 l0 -2.7941 l-2.7005 0 l0.53476 0.41444 l0 9.3583 l2.1658 0 l0 -5.5348 l-0.54813 -0.41444 l2.3797 0 l0 8.0615 l-4.5053 0 c-0.74866 0 -1.3235 -0.57487 -1.3235 -1.3235 l0 -11.35 c0 -0.70856 0.57487 -1.3235 1.3235 -1.3235 l3.1818 0 c0.74866 0 1.3235 0.61497 1.3235 1.3235 z"/></g><g id="SvgjsG7120" featureKey="nameLeftFeature-0" transform="matrix(2.5714285714285716,0,0,2.5714285714285716,139.9428571122033,5.571427345275877)" fill="#fff"><path d="M3.46 20 l0 -10.64 l2.52 0 l0 10.64 l-2.52 0 z M0.8 8.52 l0 -2.52 l7.84 0 l0 2.52 l-7.84 0 z"/></g><g id="SvgjsG7121" featureKey="nameRightFeature-0" transform="matrix(2.516321373596179,0,0,2.516321373596179,168.42001683025416,6.206668561581212)" fill="#fff"><path d="M8.0566 20.18555 c-4.0039 0 -7.0313 -2.7441 -7.0313 -7.1582 c0 -4.4043 3.0273 -7.1484 7.0313 -7.1484 c3.9941 0 7.0215 2.7441 7.0215 7.1484 c0 4.4141 -3.0273 7.1582 -7.0215 7.1582 z M8.0566 18.0176 c2.6367 0 4.6973 -1.8262 4.6973 -4.9902 c0 -3.1348 -2.0605 -4.9707 -4.6973 -4.9707 s-4.6973 1.8359 -4.6973 4.9707 c0 3.1641 2.0605 4.9902 4.6973 4.9902 z M20.43948125 17.9102 l4.5996 0 l0 2.0898 l-6.9336 0 l0 -13.926 l2.334 0 l0 11.836 z"/></g>
			</g>
		</svg>
